<svg width="170" height="170" viewBox="0 0 170 170" fill="none" xmlns="http://www.w3.org/2000/svg">
<g clip-path="url(#clip0_230_6)">
<path d="M22.7765 99.4668C19.3035 113.359 8.46667 131.142 3 139.02C11.2 139.02 26.6353 139.283 33.8706 140.953C41.1059 142.623 58.9529 150.657 75.8353 144.325C90.3059 138.899 108.346 122.141 114.424 117.8C121.176 112.976 139.024 105.259 147.224 94.1646C156.13 82.1148 157.392 67.6227 157.835 56.5374C158.318 44.4785 166.518 23.7339 166.518 23.7373C166.518 23.7373 151.082 28.5646 135.647 29.047C120.212 29.5293 91.7529 24.4951 75.8353 34.3491C65.7059 40.6198 71.9471 51.7375 67.1529 55.5727C62.3294 59.4315 55.0941 48.8198 43.5176 56.5375C35.0799 62.1627 27.1176 82.1021 22.7765 99.4668Z" fill="#D10F3D"/>
<path d="M22.7765 99.4668C19.3035 113.359 8.46667 131.142 3 139.02C4.44706 138.059 19.4 130.823 31.4588 122.141C43.5176 113.459 53.6229 100.445 63.2941 94.647C72.4939 89.1319 81.6235 91.7528 86.9294 87.4117C92.2353 83.0705 92.2353 74.8705 103.812 66.6705C115.388 58.4705 124.88 56.662 138.059 47.3764C149.22 39.5131 166.518 23.7373 166.518 23.7373C166.518 23.7373 151.082 28.5646 135.647 29.047C120.212 29.5293 91.7529 24.4951 75.8353 34.3491C65.7059 40.6198 71.9471 51.7375 67.1529 55.5727C62.3294 59.4315 55.0941 48.8198 43.5176 56.5375C35.0799 62.1627 27.1176 82.1021 22.7765 99.4668Z" fill="#E93762"/>
</g>
<defs>
<clipPath id="clip0_230_6">
<rect width="164" height="123.482" fill="white" transform="translate(3 23.2588)"/>
</clipPath>
</defs>
</svg>
